<?plantuml 1.2026.1?><svg xmlns="http://www.w3.org/2000/svg" xmlns:xlink="http://www.w3.org/1999/xlink" contentStyleType="text/css" data-diagram-type="CLASS" height="341px" preserveAspectRatio="none" style="width:578px;height:341px;background:#FFFFFF;" version="1.1" viewBox="0 0 578 341" width="578px" zoomAndPan="magnify"><defs/><g><!--class VgaTextModeCursor--><g class="entity" data-qualified-name="VgaTextModeCursor" data-source-line="1" id="ent0002"><rect fill="#F1F1F1" height="162.4075" rx="2.5" ry="2.5" style="stroke:#181818;stroke-width:0.5;" width="529.1161" x="24.91" y="7"/><ellipse cx="217.7593" cy="23" fill="#ADD1B2" rx="11" ry="11" style="stroke:#181818;stroke-width:1;"/><path d="M217.228,29.9219 Q215.478,29.9219 214.3374,29.1875 Q213.2124,28.4375 212.6499,27.0938 Q212.103,25.7344 212.103,23.9375 Q212.103,21.9063 212.7593,20.4531 Q213.4155,19 214.6968,18.2188 Q215.978,17.4375 217.853,17.4375 Q218.7437,17.4375 219.4155,17.625 Q220.0874,17.7969 220.7749,18.1406 L219.9624,20.1563 Q219.3374,19.8438 218.7905,19.7188 Q218.2593,19.5938 217.7749,19.5938 Q216.603,19.5938 215.8999,20.125 Q215.1968,20.6563 214.8999,21.6094 Q214.603,22.5625 214.603,23.8281 Q214.603,25.8438 215.3218,26.8125 Q216.0405,27.7656 217.6343,27.7656 Q218.228,27.7656 218.853,27.6094 Q219.478,27.4531 220.3062,27.0781 L220.3062,29.2969 Q219.5718,29.6094 218.7749,29.7656 Q217.9937,29.9219 217.228,29.9219 Z " fill="#000000"/><text fill="#000000" font-family="sans-serif" font-size="14" lengthAdjust="spacing" textLength="134.9175" x="238.2593" y="28.432">VgaTextModeCursor</text><line style="stroke:#181818;stroke-width:0.5;" x1="25.91" x2="553.0261" y1="39" y2="39"/><g data-visibility-modifier="PUBLIC_FIELD"><ellipse cx="35.91" cy="54.034" fill="none" rx="3" ry="3" style="stroke:#038048;stroke-width:1;"/></g><text fill="#000000" font-family="sans-serif" font-size="14" lengthAdjust="spacing" textLength="77.8957" x="44.91" y="57.9659">row: uint8_t</text><g data-visibility-modifier="PUBLIC_FIELD"><ellipse cx="35.91" cy="73.1019" fill="none" rx="3" ry="3" style="stroke:#038048;stroke-width:1;"/></g><text fill="#000000" font-family="sans-serif" font-size="14" lengthAdjust="spacing" textLength="71.4417" x="44.91" y="77.0339">col: uint8_t</text><g data-visibility-modifier="PUBLIC_FIELD"><ellipse cx="35.91" cy="92.1698" fill="none" rx="3" ry="3" style="stroke:#038048;stroke-width:1;"/></g><text fill="#000000" font-family="sans-serif" font-size="14" lengthAdjust="spacing" textLength="241.3451" x="44.91" y="96.1018">memory_position: uint16_t &#171;Pointer&#187;</text><g data-visibility-modifier="PUBLIC_FIELD"><ellipse cx="35.91" cy="111.2377" fill="none" rx="3" ry="3" style="stroke:#038048;stroke-width:1;"/></g><text fill="#000000" font-family="sans-serif" font-size="14" lengthAdjust="spacing" textLength="218.6092" x="44.91" y="115.1697">memory_start: uint16_t &#171;Pointer&#187;</text><g data-visibility-modifier="PUBLIC_FIELD"><ellipse cx="35.91" cy="130.3056" fill="none" rx="3" ry="3" style="stroke:#038048;stroke-width:1;"/></g><text fill="#000000" font-family="sans-serif" font-size="14" lengthAdjust="spacing" textLength="213.3172" x="44.91" y="134.2376">memory_end: uint16_t &#171;Pointer&#187;</text><line style="stroke:#181818;stroke-width:0.5;" x1="25.91" x2="553.0261" y1="142.3396" y2="142.3396"/><g data-visibility-modifier="PUBLIC_METHOD"><ellipse cx="35.91" cy="157.3735" fill="#84BE84" rx="3" ry="3" style="stroke:#038048;stroke-width:1;"/></g><text fill="#000000" font-family="sans-serif" font-size="14" lengthAdjust="spacing" textLength="503.1161" x="44.91" y="161.3055">CalculateRowColFromMemoryPosition(c:VgaTextModeCursor &#171;Pointer&#187;):void</text></g><!--class VgaTextModeInterface--><g class="entity" data-qualified-name="VgaTextModeInterface" data-source-line="9" id="ent0003"><rect fill="#F1F1F1" height="105.2038" rx="2.5" ry="2.5" style="stroke:#181818;stroke-width:0.5;" width="564.942" x="7" y="229.41"/><ellipse cx="210.1743" cy="245.41" fill="#ADD1B2" rx="11" ry="11" style="stroke:#181818;stroke-width:1;"/><path d="M209.643,252.3319 Q207.893,252.3319 206.7524,251.5975 Q205.6274,250.8475 205.0649,249.5038 Q204.518,248.1444 204.518,246.3475 Q204.518,244.3163 205.1743,242.8631 Q205.8305,241.41 207.1118,240.6288 Q208.393,239.8475 210.268,239.8475 Q211.1587,239.8475 211.8305,240.035 Q212.5024,240.2069 213.1899,240.5506 L212.3774,242.5663 Q211.7524,242.2538 211.2055,242.1288 Q210.6743,242.0038 210.1899,242.0038 Q209.018,242.0038 208.3149,242.535 Q207.6118,243.0663 207.3149,244.0194 Q207.018,244.9725 207.018,246.2381 Q207.018,248.2538 207.7368,249.2225 Q208.4555,250.1756 210.0493,250.1756 Q210.643,250.1756 211.268,250.0194 Q211.893,249.8631 212.7212,249.4881 L212.7212,251.7069 Q211.9868,252.0194 211.1899,252.1756 Q210.4087,252.3319 209.643,252.3319 Z " fill="#000000"/><text fill="#000000" font-family="sans-serif" font-size="14" lengthAdjust="spacing" textLength="150.0934" x="230.6743" y="250.842">VgaTextModeInterface</text><line style="stroke:#181818;stroke-width:0.5;" x1="8" x2="570.942" y1="261.41" y2="261.41"/><g data-visibility-modifier="PUBLIC_FIELD"><ellipse cx="18" cy="276.444" fill="none" rx="3" ry="3" style="stroke:#038048;stroke-width:1;"/></g><text fill="#000000" font-family="sans-serif" font-size="14" lengthAdjust="spacing" textLength="180.7813" x="27" y="280.3759">cursor:VgaTextModeCursor</text><line style="stroke:#181818;stroke-width:0.5;" x1="8" x2="570.942" y1="288.4779" y2="288.4779"/><g data-visibility-modifier="PUBLIC_METHOD"><ellipse cx="18" cy="303.5119" fill="#84BE84" rx="3" ry="3" style="stroke:#038048;stroke-width:1;"/></g><text fill="#000000" font-family="sans-serif" font-size="14" lengthAdjust="spacing" textLength="538.942" x="27" y="307.4439">Print(a:VgaTextModeInterface &#171;Pointer&#187;, input:char[*] &#171;Pointer&#187;, attribute:uint8_t)</text><g data-visibility-modifier="PUBLIC_METHOD"><ellipse cx="18" cy="322.5798" fill="#84BE84" rx="3" ry="3" style="stroke:#038048;stroke-width:1;"/></g><text fill="#000000" font-family="sans-serif" font-size="14" lengthAdjust="spacing" textLength="403.1005" x="27" y="326.5118">NewVgaTextModeInterface():VgaTextModeInterface &#171;Create&#187;</text></g><!--link VgaTextModeCursor to VgaTextModeInterface--><g class="link" data-entity-1="ent0002" data-entity-2="ent0003" data-link-type="composition" data-source-line="14" id="lnk4"><path codeLine="14" d="M289.47,169.71 C289.47,189.81 289.47,198.82 289.47,217.12" fill="none" id="VgaTextModeCursor-to-VgaTextModeInterface" style="stroke:#181818;stroke-width:1;"/><polygon fill="#181818" points="289.47,229.12,293.47,223.12,289.47,217.12,285.47,223.12,289.47,229.12" style="stroke:#181818;stroke-width:1;"/></g><?plantuml-src ZL1DQm8n4BtlhyXnrzQ3brA2U5aezA0ifNYH8jFis0QoEpAPT2tYVs-qGRIxBSqflA-PUSQ1zshv1i-uapdLM0Rsn6gVgVXk55EdLR2jtAz59SoGEsC9Qh0X_bnloLknr7xJaxlecKuhYd_asKnTYxq0ox-KsDP_wqfm9ZWGVAAk9FV0rCnFrYejb1lTl_4YgD0VPElia9cVVJmU1HimUAx4dDpzl4HN73Dpq8CP5oDlbMstGRHv1rwDNguf467x6WHrwhb8wGliXeBpuhTv9MFivLZL8UjNC1wF1e_z0W00?></g></svg>